<?xml version="1.0" standalone="no"?>
<!DOCTYPE svg PUBLIC "-//W3C//DTD SVG 20010904//EN"
 "http://www.w3.org/TR/2001/REC-SVG-20010904/DTD/svg10.dtd">
<svg version="1.0" xmlns="http://www.w3.org/2000/svg"
 width="512.000000pt" height="512.000000pt" viewBox="0 0 512.000000 512.000000"
 preserveAspectRatio="xMidYMid meet">
<metadata>
Created by potrace 1.11, written by Peter Selinger 2001-2013
</metadata>
<g transform="translate(0.000000,512.000000) scale(0.100000,-0.100000)"
fill="#000000" stroke="none">
<path d="M2186 5112 c-25 -5 -97 -51 -114 -71 -50 -60 -67 -165 -39 -232 80
-191 341 -190 421 2 20 47 14 134 -12 185 -23 44 -81 96 -122 109 -30 9 -107
14 -134 7z"/>
<path d="M2950 4941 c-41 -10 -77 -40 -98 -82 -48 -97 26 -219 133 -219 103 0
184 105 151 195 -30 84 -105 126 -186 106z"/>
<path d="M2480 4549 c-50 -11 -125 -55 -156 -92 -72 -85 -90 -217 -43 -311 73
-148 239 -209 383 -142 28 13 60 32 71 43 39 39 67 75 70 91 2 10 8 30 15 46
22 59 13 150 -22 219 -55 109 -195 174 -318 146z"/>
<path d="M1728 3920 c0 -3 -2 -58 -3 -122 l-1 -118 60 -1 c34 -1 71 0 84 1 19
1 22 -3 23 -37 0 -21 0 -293 1 -606 l0 -567 -26 -35 c-15 -19 -63 -79 -108
-132 -44 -54 -92 -113 -107 -131 -14 -19 -35 -43 -46 -55 -11 -12 -38 -45 -59
-72 -22 -28 -46 -57 -53 -65 -56 -65 -77 -90 -123 -150 -19 -24 -42 -52 -50
-61 -17 -18 -69 -81 -102 -124 -12 -16 -28 -36 -35 -43 -7 -7 -29 -34 -50 -60
-21 -26 -41 -49 -44 -52 -4 -3 -29 -35 -57 -72 -81 -108 -128 -218 -160 -383
-8 -40 -8 -240 0 -290 13 -78 48 -182 84 -248 9 -15 21 -38 27 -50 27 -51 64
-96 141 -172 134 -132 269 -209 441 -250 17 -4 41 -10 55 -13 33 -7 1848 -7
1877 1 12 3 50 13 85 23 79 21 218 86 283 132 79 56 216 202 261 278 85 143
123 291 119 459 -2 111 -26 260 -45 279 -5 5 -10 16 -10 24 0 20 -49 120 -82
169 -27 41 -163 209 -211 263 -13 14 -38 45 -57 70 -19 25 -37 47 -40 50 -6 5
-95 112 -147 176 -33 40 -135 165 -182 220 -14 18 -39 49 -56 70 -38 48 -139
170 -172 208 l-26 29 -1 609 -1 609 35 -1 c19 -1 58 -2 86 -1 l50 1 0 123 -1
122 -827 0 c-456 1 -829 -2 -830 -5z m1233 -330 c0 -8 1 -283 1 -610 0 -360 4
-602 10 -613 5 -10 18 -28 28 -40 43 -52 96 -116 110 -133 76 -95 97 -121 108
-133 7 -7 50 -59 94 -115 45 -55 85 -103 88 -106 3 -3 24 -27 45 -55 22 -27
42 -52 45 -55 3 -3 37 -43 75 -90 42 -50 62 -81 50 -76 -64 24 -148 46 -205
54 -65 8 -225 7 -281 -2 -16 -2 -29 -1 -29 3 0 4 -16 26 -35 48 -92 108 -264
114 -362 13 -34 -35 -63 -88 -66 -120 -2 -24 -17 -30 -90 -34 -31 -2 -59 -5
-64 -8 -7 -3 -148 -2 -192 1 -11 1 -9 7 7 24 83 89 43 243 -78 293 -43 19
-128 8 -166 -21 -68 -52 -94 -130 -69 -211 l12 -42 -31 9 c-98 27 -308 114
-343 141 -10 8 -10 13 0 23 7 7 26 29 42 51 17 21 68 83 113 138 46 56 99 119
117 141 18 22 48 58 66 81 19 22 50 60 69 84 19 25 49 60 66 80 17 19 36 44
42 56 8 14 11 207 11 622 0 331 2 605 4 609 3 5 186 8 406 8 349 0 401 -2 402
-15z"/>
<path d="M2457 2740 c-119 -37 -207 -163 -203 -291 9 -244 308 -367 486 -200
188 177 68 496 -188 499 -37 0 -79 -3 -95 -8z"/>
</g>
</svg>
